<?xml version="1.0" encoding="UTF-8"?>
<svg height="16px" viewBox="2 2 20 20" width="16px" xmlns="http://www.w3.org/2000/svg">
<path d="M 20 18.69 7.84 6.14 5.27 3.49 4 4.76 l 2.8 2.8 v 0.01 c -0.52 0.99 -0.8 2.16 -0.8 3.42 v 5 l -2 2 v 1 h 13.73 l 2 2 L 21 19.72 l -1 -1.03 z M 12 22 c 1.11 0 2 -0.89 2 -2 h -4 c 0 1.11.89 2 2 2 z m 6 -7.32 V 11 c 0 -3.08 -1.64 -5.64 -4.5 -6.32 V 4 c 0 -0.83 -0.67 -1.5 -1.5 -1.5 s -1.5 0.67 -1.5 1.5 v 0.68 c -0.15 0.03 -0.29 0.08 -0.42 0.12 -0.1 0.03 -0.2 0.07 -0.3 0.11 h -0.01 c -0.01 0 -0.01 0 -0.02 0.01 -0.23 0.09 -0.46 0.2 -0.68 0.31 0 0 -0.01 0 -0.01 0.01 L 18 14.68 z" fill="#ffffff" />
</svg>
